<?xml version="1.0" encoding="utf-8"?>
<!DOCTYPE svg PUBLIC "-//W3C//DTD SVG 1.1//EN" "http://www.w3.org/Graphics/SVG/1.1/DTD/svg11.dtd">
<svg version="1.1" xmlns="http://www.w3.org/2000/svg" xmlns:xlink="http://www.w3.org/1999/xlink" x="0px" y="0px"
     viewBox="70 40 160 100" style="enable-background:new 0 0 300 200;" xml:space="preserve">
<g id="Masking">
    <circle style="fill:#A2A2A2;" cx="151.333" cy="86.333" r="36.667"/>
    <polygon style="fill:#685C79;" points="158.333,43 154.333,43 154.333,46.333 155,46.333 155,48.333 158.333,48.333 158.333,43
        "/>
    <polygon style="fill:#685C79;" points="150.333,43 146.333,43 146.333,46.333 150.333,46.333 150.333,43"/>
    <polygon style="fill:#685C79;" points="142.333,43 138.333,43 138.333,46.333 142.333,46.333 142.333,43"/>
    <polygon style="fill:#685C79;" points="134.333,43 130.333,43 130.333,46.333 134.333,46.333 134.333,43"/>
    <polygon style="fill:#685C79;" points="126.333,43 122.333,43 122.333,46.333 126.333,46.333 126.333,43"/>
    <polygon style="fill:#685C79;" points="118.333,43 114.333,43 114.333,46.333 118.333,46.333 118.333,43"/>
    <polygon style="fill:#685C79;" points="110.333,43 105,43 105,49.667 108.333,49.667 108.333,46.333 110.333,46.333 110.333,43
        "/>
    <polygon style="fill:#685C79;" points="108.333,53.667 105,53.667 105,57.667 108.333,57.667 108.333,53.667"/>
    <polygon style="fill:#685C79;" points="108.333,61.667 105,61.667 105,65.667 108.333,65.667 108.333,61.667"/>
    <polygon style="fill:#685C79;" points="108.333,69.667 105,69.667 105,73.667 108.333,73.667 108.333,69.667"/>
    <polygon style="fill:#685C79;" points="108.333,77.667 105,77.667 105,81.667 108.333,81.667 108.333,77.667"/>
    <polygon style="fill:#685C79;" points="108.333,85.667 105,85.667 105,89.667 108.333,89.667 108.333,85.667"/>
    <polygon style="fill:#685C79;" points="105,93 105,93 105,96.333 108.333,96.333 108.333,96.333 108.333,96.333 108.333,96.333
        108.333,93  "/>
    <polygon style="fill:#685C79;" points="114.333,93 110.333,93 110.333,96.333 114.333,96.333 114.333,93"/>
    <path style="fill:#FFA500;" d="M158.333,50.342c-2.267-0.438-4.605-0.675-7-0.675c-20.25,0-36.667,16.416-36.667,36.667
        c0,3.468,0.492,6.82,1.392,10h42.275V50.342z"/>
</g>
</svg>
