<svg xmlns="http://www.w3.org/2000/svg" xmlns:xlink="http://www.w3.org/1999/xlink" version="1.1" id="Livello_1" x="0px" y="0px" width="100px" height="100px" viewBox="0 0 100 100" enable-background="new 0 0 100 100" xml:space="preserve">
<path d="M92.146,23.312C85.153,8.94,56.323-0.898,42.886,1.307C29.757,3.464,8.667,21.148,6.394,34.797  c-0.899,5.397-0.354,15.138,14.698,37.324c7.43,10.95,15.025,19.996,15.564,20.635l-0.009,0.008l5.314,6.238l0.83-0.706  l-5.276-6.194l0.832-0.704l5.273,6.192l0.83-0.706l-5.27-6.189l0.833-0.703l5.266,6.186l0.83-0.707l-5.264-6.183l0.833-0.701  l5.261,6.178l0.829-0.706l-5.257-6.175l0.832-0.704l5.254,6.172l0.83-0.707l-5.251-6.168l0.833-0.704l5.249,6.166l0.83-0.706  l-5.246-6.162l0.832-0.704l5.244,6.159l0.829-0.707l-5.24-6.154l0.832-0.703l5.237,6.151l0.831-0.706l-5.236-6.148l0.833-0.704  l5.231,6.146l0.83-0.707l-5.229-6.141l0.007-0.007C36.434,63.776,23.958,43.274,24.666,37.841  c0.785-4.705,14.456-17.144,21.224-18.255c7.847-1.293,26.569,6.739,29.456,11.565c0.17,2.591-3.048,9.93-4.798,13.922  c-2.99,6.825-5.817,13.273-5.817,19.234h0.014v8.104h1.09v-8.104h1.09v8.104h1.09v-8.104h1.089v8.104h1.091v-8.104h1.089v8.104  h1.089v-8.104h1.091v8.104h1.089v-8.104h1.09v8.104h1.09v-8.104h1.09v8.104h1.089v-8.104h1.091v8.104h1.089v-8.104h1.089v8.104  h1.091v-8.195H83.26c0.065-2.149,2.58-7.887,4.253-11.705C91.902,42.496,96.441,32.14,92.146,23.312z"/>
</svg>