<svg xmlns="http://www.w3.org/2000/svg" xmlns:xlink="http://www.w3.org/1999/xlink" version="1.0" x="0px" y="0px" width="100px" height="100px" viewBox="0 0 100 100" xml:space="preserve">
<g>
	<path class="demo--graphic" d="M49.05,75.254c-2.166,1.06-4.355,3.329-4.046,5.809c0.248,1.98-0.001,7.856-0.004,7.916l1,0.043   c0.01-0.245,0.254-6.02-0.004-8.084c-0.249-1.992,1.637-3.877,3.493-4.785c1.607-0.788,3.808-1.148,5.157,0.201l10,10l0.707-0.707   l-10-10C53.914,74.208,51.5,74.058,49.05,75.254z"/>
	<path class="demo--graphic" d="M51.625,77.5C49.334,77.5,47,79.771,47,82v7h1v-7c0-1.701,1.863-3.5,3.625-3.5   c1.112,0,5.833,4.492,9.754,8.835l0.742-0.67C60.739,85.135,53.74,77.5,51.625,77.5z"/>
	<path class="demo--graphic" d="M51.625,80.5c-1.961,0-2.574,2.275-2.625,3.5v5h1v-4.979c0.001-0.024,0.122-2.521,1.625-2.521   c1.204,0,4.655,3.974,6.722,6.795l0.807-0.59C58.272,86.502,53.77,80.5,51.625,80.5z"/>
	<path class="demo--graphic" d="M51.982,84.07c-0.61,0.099-0.898,0.645-0.93,0.706L51,84.882V88h1v-2.847   c0.037-0.042,0.089-0.087,0.143-0.096c0.089-0.014,0.265,0.057,0.504,0.296c0.93,0.93,1.896,2.851,1.906,2.87l0.895-0.447   c-0.042-0.085-1.049-2.085-2.094-3.13C52.898,84.19,52.437,84,51.982,84.07z"/>
	<path class="demo--graphic" d="M54.849,72.553c-1.926-0.963-4.672-0.726-7.345,0.637C45.042,74.443,43.276,76.299,43,78v11h1   l-0.007-10.918c0.213-1.275,1.843-2.922,3.965-4.002c2.392-1.217,4.8-1.452,6.443-0.633c3.87,1.935,11.896,10.799,11.978,10.888   l0.742-0.67C66.787,83.295,58.887,74.571,54.849,72.553z"/>
	<path class="demo--graphic" d="M41.515,75.879C40.512,79.893,40.5,87.671,40.5,88h1c0-0.079,0.012-7.983,0.985-11.879   c0.951-3.805,6.776-6.387,9.75-5.798c2.547,0.51,12.209,7.468,16.962,11.075l0.605-0.797c-0.569-0.432-13.964-10.577-17.372-11.259   C48.734,68.597,42.545,71.761,41.515,75.879z"/>
	<path class="demo--graphic" d="M39.542,72.65C37.856,76.51,37.514,85.863,37.5,86.26l1,0.035c0.003-0.096,0.348-9.558,1.958-13.244   c1.607-3.681,6.121-6.029,11.01-5.719c4.958,0.32,20.077,11.817,20.229,11.934l0.607-0.795   c-0.632-0.481-15.514-11.797-20.771-12.137C46.236,66.008,41.315,68.592,39.542,72.65z"/>
	<path class="demo--graphic" d="M37.602,69.434C35.194,72.601,35.167,84.495,35.167,85h1c0-0.12,0.025-12.06,2.231-14.961   c2.306-3.034,10.448-6.131,14.712-4.892c4.478,1.302,20.486,10.153,20.647,10.242l0.484-0.875   c-0.662-0.366-16.269-8.994-20.853-10.328C48.723,62.829,40.132,66.104,37.602,69.434z"/>
	<path class="demo--graphic" d="M35.344,67.618c-3.969,3.364-3.851,13.919-3.844,14.366l1-0.016c-0.002-0.104-0.119-10.527,3.49-13.587   c3.807-3.227,10.929-6.354,15.457-5.885c4.609,0.485,23.891,9.821,24.084,9.916l0.438-0.9c-0.8-0.388-19.634-9.507-24.416-10.01   C46.604,60.979,39.29,64.271,35.344,67.618z"/>
	<path class="demo--graphic" d="M33.854,64.312c-3.023,3.912-5.967,13.989-6.091,14.416l0.961,0.279c0.029-0.104,3.014-10.322,5.921-14.084   c2.93-3.791,11.598-5.152,16.832-4.925c5.332,0.243,25.1,10.085,25.299,10.185l0.447-0.895c-0.82-0.41-20.159-10.037-25.701-10.288   C46.074,58.748,37.003,60.237,33.854,64.312z"/>
	<path class="demo--graphic" d="M31.605,61.641c-2.018,2.574-6.259,12.689-6.438,13.118l0.922,0.387c0.044-0.104,4.369-10.419,6.304-12.888   c1.103-1.407,4.977-4.712,17.119-5.008c9.955-0.253,29.191,9.893,29.385,9.995l0.469-0.883   c-0.797-0.424-19.652-10.377-29.877-10.112C37.371,56.546,33.083,59.755,31.605,61.641z"/>
	<path class="demo--graphic" d="M30.709,58.521C34.741,55.622,46,54.167,50,54.167v-1c-4,0-15.465,1.372-19.875,4.542   c-4.439,3.191-6.499,13.702-6.595,14.148l0.977,0.211C24.53,71.963,26.579,61.49,30.709,58.521z"/>
	<path class="demo--graphic" d="M54.66,53.168l-0.07,0.998c4.215,0.298,9.706,1.942,14.689,4.397c4.399,2.169,9.492,6.154,9.543,6.194   l0.617-0.787c-0.052-0.04-5.224-4.089-9.719-6.304C64.628,55.156,58.998,53.475,54.66,53.168z"/>
	<path class="demo--graphic" d="M58.669,52.16c5.934,0.976,17.979,7.235,18.1,7.299l0.463-0.887c-0.5-0.261-12.309-6.397-18.4-7.398   c-6.036-0.993-21.062-0.356-24.358,1.032l0.389,0.922C37.732,51.919,52.446,51.137,58.669,52.16z"/>
	<path class="demo--graphic" d="M30.111,55.516l-0.557-0.83c-2.905,1.947-7.922,11.481-8.135,11.886l0.887,0.465   C22.357,66.938,27.415,57.323,30.111,55.516z"/>
	<path class="demo--graphic" d="M60.186,48.754c-6.055-0.936-12.918-1.998-19.27-0.913c-7.119,1.215-14.232,5.714-15.61,6.878   c-1.476,1.244-5.305,5.719-5.467,5.908l0.76,0.65c0.039-0.046,3.938-4.603,5.352-5.795c1.279-1.081,8.315-5.492,15.134-6.656   c6.188-1.057,12.969-0.01,18.949,0.916l1.642,0.252c6.435,0.978,19.497,7.141,19.629,7.203l0.428-0.904   c-0.541-0.256-13.326-6.288-19.906-7.287L60.186,48.754z"/>
	<path class="demo--graphic" d="M42.55,45.831l-0.1-0.995c-0.051,0.005-5.128,0.53-10.625,2.574c-5.512,2.05-12.826,7.787-13.135,8.03   l0.619,0.785c0.074-0.059,7.501-5.883,12.863-7.878C37.545,46.35,42.5,45.836,42.55,45.831z"/>
	<path class="demo--graphic" d="M67.028,47.402c-4.687-1.474-13.6-2.241-18.495-2.567l-0.066,0.998c4.852,0.323,13.675,1.081,18.261,2.523   c4.562,1.436,15.003,5.08,15.107,5.116l0.33-0.943C82.06,52.491,71.604,48.842,67.028,47.402z"/>
	<path class="demo--graphic" d="M19.253,51.809c0.969,0,3.477-1.026,10.861-6.062C34.413,42.816,45.104,42.5,49.5,42.5   c7.341,0,32.107,7.404,32.356,7.479l0.287-0.958C81.12,48.714,56.987,41.5,49.5,41.5c-4.489,0-15.421,0.333-19.948,3.42   c-6.218,4.239-9.679,6.004-10.271,5.875c0.015,0.003,0.068,0.025,0.113,0.082l-0.787,0.617   C18.716,51.634,18.854,51.809,19.253,51.809z"/>
	<path class="demo--graphic" d="M25.815,45.797c1.465-0.592,2.628-1.424,3.858-2.305c2.647-1.895,5.647-4.042,12.857-4.493   c6.825-0.427,20.21,2.745,29.073,4.842c5.879,1.391,8.994,2.111,9.976,1.988l-0.125-0.992c-0.844,0.103-4.914-0.855-9.62-1.969   c-9.454-2.237-22.406-5.304-29.366-4.867c-7.496,0.468-10.62,2.705-13.377,4.678c-1.181,0.845-2.296,1.644-3.651,2.19   c-4.153,1.678-6.036,0.151-6.114,0.085l-0.656,0.755c0.063,0.056,1.106,0.939,3.221,0.939   C22.935,46.649,24.238,46.434,25.815,45.797z"/>
	<path class="demo--graphic" d="M30.216,40.024c2.847-1.771,5.79-3.601,9.366-4.197c7.606-1.267,16.276,1.202,22.608,3.005   c1.053,0.3,2.035,0.579,2.931,0.818c6.1,1.627,10.805,2.193,16.256,1.959l-0.043-0.999c-5.332,0.229-9.96-0.328-15.955-1.926   c-0.891-0.238-1.867-0.516-2.914-0.814c-6.425-1.829-15.223-4.335-23.047-3.029c-3.772,0.628-6.938,2.598-9.73,4.334   c-3.712,2.309-6.92,4.303-10.479,2.674l-0.416,0.909c1.052,0.481,2.071,0.687,3.071,0.687   C24.716,43.445,27.408,41.77,30.216,40.024z"/>
	<path class="demo--graphic" d="M63.359,35.46c5.394,1.583,10.242,1.785,13.451,1.918c0.864,0.036,1.63,0.067,2.28,0.12l0.08-0.997   c-0.662-0.053-1.439-0.085-2.318-0.122c-3.35-0.139-7.936-0.33-13.212-1.879c-1.662-0.487-3.125-0.971-4.539-1.438   C54.77,31.631,51.348,30.5,46,30.5v1c5.188,0,8.541,1.108,12.788,2.512C60.21,34.482,61.681,34.968,63.359,35.46z"/>
	<path class="demo--graphic" d="M22.556,39.556c0.288,0.066,0.581,0.097,0.88,0.097c2.237,0,4.75-1.738,7.19-3.426l0.408-0.282   c3.496-2.411,7.376-3.908,11.53-4.45l-0.129-0.991c-4.313,0.562-8.341,2.116-11.97,4.618l-0.408,0.283   c-2.587,1.789-5.261,3.64-7.277,3.177c-0.846-0.194-1.541-0.792-2.126-1.828l-0.871,0.492   C20.504,38.522,21.438,39.299,22.556,39.556z"/>
	<path class="demo--graphic" d="M28.109,32.519l0.27,0.963c1.033-0.289,2.151-0.835,3.445-1.469c3.358-1.643,7.959-3.894,15.684-4.013   c6.364-0.101,12.848,2.262,18.051,4.158c3.662,1.335,6.825,2.488,9.253,2.592l0.043-0.999c-2.273-0.098-5.369-1.226-8.954-2.532   C60.621,29.294,54.039,26.891,47.492,27c-7.948,0.122-12.664,2.43-16.107,4.115C30.135,31.726,29.056,32.254,28.109,32.519z"/>
	<path class="demo--graphic" d="M26.117,34.708l-0.4-0.916c-0.828,0.363-2.951-0.27-4.095-0.752l-0.389,0.921   c0.273,0.116,2.265,0.934,3.815,0.934C25.446,34.894,25.814,34.841,26.117,34.708z"/>
	<path class="demo--graphic" d="M66.738,28.813c6.835,1.988,11.847,2.675,11.896,2.682l0.133-0.991c-0.049-0.006-4.986-0.684-11.75-2.651   L66.738,28.813z"/>
	<path class="demo--graphic" d="M57.906,26.681c1.648,0.503,3.204,0.978,4.651,1.304l0.219-0.976c-1.41-0.317-2.948-0.787-4.578-1.284   c-4.293-1.31-9.16-2.795-13.613-2.052l0.164,0.986C48.975,23.954,53.721,25.403,57.906,26.681z"/>
	<path class="demo--graphic" d="M34.312,27.73c1.953-0.989,3.797-1.924,5.494-2.417l-0.279-0.96c-1.786,0.519-3.671,1.474-5.667,2.484   c-3.792,1.921-7.71,3.913-11.126,2.921l-0.277,0.961c0.726,0.21,1.463,0.304,2.209,0.304C27.812,31.023,31.106,29.354,34.312,27.73   z"/>
	<path class="demo--graphic" d="M41.062,22.496c9.763-1.238,16.609,1.355,21.611,3.25c0.518,0.196,1.014,0.384,1.487,0.557   c4.159,1.525,11.121,2.67,12.753,2.67c0.169,0,0.281-0.013,0.327-0.038l-0.286-0.52L76.94,28c-0.007,0-0.015,0-0.024,0   c-0.757,0-7.797-0.947-12.411-2.637c-0.471-0.173-0.963-0.358-1.477-0.552c-5.102-1.932-12.088-4.577-22.092-3.306   c-10.505,1.334-16.942,5.917-17.211,6.111l0.586,0.811C24.375,28.379,30.809,23.798,41.062,22.496z"/>
	<path class="demo--graphic" d="M47.406,18.681c1.612,0.307,3.195,0.605,4.733,0.895c7.468,1.407,13.918,2.623,17.211,3.651   c4.003,1.251,6.254,1.936,6.254,1.936l0.291-0.957c-0.001,0-2.25-0.684-6.246-1.933c-3.35-1.047-9.826-2.267-17.325-3.68   c-1.537-0.29-3.119-0.588-4.73-0.895c-9.493-1.81-17.787-0.016-17.869,0.003l0.217,0.977   C30.022,18.659,38.115,16.909,47.406,18.681z"/>
	<path class="demo--graphic" d="M40.009,20.5l-0.018-1c-4.739,0.083-12.607,1.598-12.939,1.662l0.189,0.981   C27.322,22.128,35.356,20.582,40.009,20.5z"/>
	<path class="demo--graphic" d="M70.12,20.02c0.895,0,1.629-0.062,2.143-0.204l-0.266-0.964c-3.503,0.969-19.422-2.243-22.771-3.247   c-3.379-1.014-12.306-2.021-15.089-2.067l-0.016,1c2.738,0.045,11.508,1.032,14.817,2.025C51.452,17.316,64.242,20.02,70.12,20.02z   "/>
	<path class="demo--graphic" d="M62.838,16.457c3.885,0,5.5-0.787,5.598-0.836l-0.45-0.893c-0.034,0.018-3.486,1.651-12.645-0.044   c-9.623-1.78-14.804-3.37-15.306-3.771l-0.736,0.677c0.709,0.772,7.676,2.563,15.86,4.078   C58.357,16.258,60.885,16.457,62.838,16.457z"/>
	<path class="demo--graphic" d="M55.938,12.824c3.565,0,6.677-0.636,6.831-0.667l-0.203-0.979c-0.044,0.009-4.388,0.899-8.59,0.575   c-4.143-0.32-9.007-3.154-9.056-3.183l-0.507,0.862c0.207,0.121,5.109,2.979,9.486,3.317   C54.584,12.801,55.269,12.824,55.938,12.824z"/>
</g>
</svg>
