<?xml version="1.0" encoding="utf-8"?>
<!-- Generator: Adobe Illustrator 15.1.0, SVG Export Plug-In . SVG Version: 6.00 Build 0)  -->
<!DOCTYPE svg PUBLIC "-//W3C//DTD SVG 1.1//EN" "http://www.w3.org/Graphics/SVG/1.1/DTD/svg11.dtd">
<svg version="1.1" id="Layer_1" xmlns="http://www.w3.org/2000/svg" xmlns:xlink="http://www.w3.org/1999/xlink" x="0px" y="0px"
	 width="100px" height="33.541px" viewBox="0 0 100 33.541" enable-background="new 0 0 100 33.541" xml:space="preserve">
<path fill="#0D0D0E" d="M61.902,2.442c-3.809,0.957-8.227,1.935-12.155,1.814c-2.359-0.072-4.593-0.621-6.708-1.114
	C28.778-0.181,15.903-1.437,0,2.213l1.022,6.688c0.988,0.022,2.637,0.381,2.712,2.272C4.341,26.407,8.307,33.712,22.74,33.335
	c17.861-0.466,22.505-14.761,23.482-20.2c0.524-2.919,2.027-3.216,3.707-3.261c2.976-0.08,3.314,2.095,3.835,3.412
	c6.123,15.477,9.803,18.998,22.65,20.117c19.53,1.703,17.28-12.779,19.922-21.195c0.506-1.608,1.061-2.432,2.828-2.471L100,3.048
	C88.682,0.63,76.937-1.334,61.902,2.442z M4.923,6.486c-1.411,0-2.555-0.291-2.555-0.65c0-0.359,1.144-0.65,2.555-0.65
	s2.555,0.292,2.555,0.65C7.478,6.195,6.334,6.486,4.923,6.486z M41.059,16.797c-2.733,8.065-7.017,13.918-18.021,14.213
	c-10.899,0-14.066-1.986-15.513-14.678c0-8.515-0.558-13.5,15.606-13.47C34.03,3.908,45.462,3.804,41.059,16.797z M92.615,16.333
	c-1.447,12.691-4.613,14.678-15.514,14.678c-11.004-0.295-15.288-6.148-18.021-14.213C54.678,3.804,66.109,3.908,77.009,2.863
	C93.172,2.833,92.615,7.818,92.615,16.333z M95.355,7.137c-1.41,0-2.555-0.292-2.555-0.65c0-0.359,1.145-0.65,2.555-0.65
	s2.555,0.291,2.555,0.65C97.91,6.845,96.766,7.137,95.355,7.137z"/>
</svg>
